<svg width="30" height="30" viewBox="0 0 30 30" fill="none" xmlns="http://www.w3.org/2000/svg">
<rect width="30" height="30" fill="#2D303A"/>
<path d="M15.8142 21C18.119 21 19.8727 20.0573 21 18.8168V18.5439L18.8455 16.584H18.5449C17.9186 17.3531 16.9916 17.7252 15.9896 17.7252C14.0856 17.7252 12.833 16.3607 12.833 14.5C12.833 12.6393 14.1106 11.2748 15.9645 11.2748C17.0167 11.2748 17.9186 11.6966 18.5449 12.416H18.8455L21 10.4561V10.1832C19.8727 8.94275 18.119 8 15.8142 8C11.9061 8 9 10.7538 9 14.5C9 18.2462 11.9061 21 15.8142 21Z" fill="#FEFFFB"/>
</svg>
